<svg width="75" height="11" viewBox="0 0 75 11" fill="none" xmlns="http://www.w3.org/2000/svg">
<path d="M5.5 0L7.12288 3.2663L10.7308 3.80041L8.12587 6.3532L8.73282 9.94959L5.5 8.261L2.26718 9.94959L2.87413 6.3532L0.269189 3.80041L3.87713 3.2663L5.5 0Z" fill="#E3010F"/>
<path d="M21.5 0L23.1229 3.2663L26.7308 3.80041L24.1259 6.3532L24.7328 9.94959L21.5 8.261L18.2672 9.94959L18.8741 6.3532L16.2692 3.80041L19.8771 3.2663L21.5 0Z" fill="#E3010F"/>
<path d="M37.5 0L39.1229 3.2663L42.7308 3.80041L40.1259 6.3532L40.7328 9.94959L37.5 8.261L34.2672 9.94959L34.8741 6.3532L32.2692 3.80041L35.8771 3.2663L37.5 0Z" fill="#E3010F"/>
<path d="M53.5 0L55.1229 3.2663L58.7308 3.80041L56.1259 6.3532L56.7328 9.94959L53.5 8.261L50.2672 9.94959L50.8741 6.3532L48.2692 3.80041L51.8771 3.2663L53.5 0Z" fill="#E3010F"/>
<path d="M69.5 0L71.1229 3.2663L74.7308 3.80041L72.1259 6.3532L72.7328 9.94959L69.5 8.261L66.2672 9.94959L66.8741 6.3532L64.2692 3.80041L67.8771 3.2663L69.5 0Z" fill="#E3010F"/>
</svg>
